<svg xmlns="http://www.w3.org/2000/svg" viewBox="-12 -155.6 178.036 168.6" width="178.036" height="168.6">
  <path d="M52.200-143.600L43-46.800L17.200-46.800L8.200-143.600L52.200-143.600ZM46.300-35.200Q52.600-29.200 52.600-20Q52.600-10.800 46.200-4.900Q39.800 1 30.200 1Q20.600 1 14.300-4.900Q8-10.800 8-20Q8-29.200 14.200-35.200Q20.400-41.200 30.200-41.200Q40-41.200 46.300-35.200Z" fill="#4CAF6E" transform="translate(-8 0)"></path>
  <path d="M51.800-51.400L51.800 0L14 0L14-143.600L111.800-143.600L111.800-110.800L51.800-110.800L51.800-84.200L102-84.200L102-51.400L51.800-51.400Z" fill="#1A1917" transform="translate(42.236363636363635 0)"></path>
</svg>